# xmcd
#
# Track frame offsets: 
#        150
#        18499
#        36482
#        54754
#        72954
#        95392
#        111901
#        127743
#        146780
#        166089
#
# Disc length: 2393 seconds
#
# Revision: 0
# Processed by: cddbd v1.5.1PL2 Copyright (c) Steve Scherf et al.
# Submitted via: ExactAudioCopy v0.95a5
#
DISCID=8109570a
DTITLE=Anntony - Corazón Mío
DYEAR=2005
DGENRE=Latin
TTITLE0=Mariposa Traicionera
TTITLE1=Corazón Mío
TTITLE2=Atrévete
TTITLE3=Por Una Bobería
TTITLE4=Ayúdame Dios Mío
TTITLE5=Te Solité La Rienda
TTITLE6=Se Que No Puedo Querer
TTITLE7=A Bucá Que
TTITLE8=Porque Te Vas
TTITLE9=Se Que No Puedo Querer (Remix)
EXTD=
EXTT0=
EXTT1=
EXTT2=
EXTT3=
EXTT4=
EXTT5=
EXTT6=
EXTT7=
EXTT8=
EXTT9=
PLAYORDER=
